<svg width="512" height="512" viewBox="0 0 512 512" xmlns="http://www.w3.org/2000/svg">
  <defs>
    <linearGradient id="bg" x1="0" y1="0" x2="1" y2="1">
      <stop offset="0" stop-color="#C0504A"/>
      <stop offset="1" stop-color="#A73833"/>
    </linearGradient>
  </defs>
  <rect width="512" height="512" rx="112" fill="url(#bg)"/>
  <path fill="#fff" d="M256 392c-9 0-18-3-25-9-46-39-74-64-94-89-18-22-27-43-27-66 0-39 30-69 68-69 23 0 44 11 57 29 13-18 34-29 57-29 38 0 68 30 68 69 0 23-9 44-27 66-20 25-48 50-94 89-7 6-16 9-25 9z"/>
</svg>
